<mxfile host="app.diagrams.net" modified="2020-11-22T13:59:42.827Z" agent="5.0 (Windows NT 10.0; Win64; x64) AppleWebKit/537.36 (KHTML, like Gecko) Chrome/83.0.4103.116 Safari/537.36" etag="j34Qt8OfzhyosbYOPOtU" version="13.10.0" type="github">
  <diagram id="gj8yxHu3S_4FRRV1vKiW" name="Page-1">
    <mxGraphModel dx="552" dy="473" grid="1" gridSize="10" guides="1" tooltips="1" connect="1" arrows="1" fold="1" page="1" pageScale="1" pageWidth="850" pageHeight="1100" math="0" shadow="0">
      <root>
        <mxCell id="0" />
        <mxCell id="1" parent="0" />
        <mxCell id="kXx_nYdvZnYu2SWyNmIj-1" value="Pegawai" style="whiteSpace=wrap;html=1;align=center;" vertex="1" parent="1">
          <mxGeometry x="370" y="280" width="100" height="40" as="geometry" />
        </mxCell>
        <mxCell id="kXx_nYdvZnYu2SWyNmIj-7" style="edgeStyle=orthogonalEdgeStyle;rounded=0;orthogonalLoop=1;jettySize=auto;html=1;entryX=0;entryY=0.5;entryDx=0;entryDy=0;" edge="1" parent="1" source="kXx_nYdvZnYu2SWyNmIj-2" target="kXx_nYdvZnYu2SWyNmIj-4">
          <mxGeometry relative="1" as="geometry" />
        </mxCell>
        <mxCell id="kXx_nYdvZnYu2SWyNmIj-2" value="nama_depan" style="ellipse;whiteSpace=wrap;html=1;" vertex="1" parent="1">
          <mxGeometry x="230" y="110" width="90" height="40" as="geometry" />
        </mxCell>
        <mxCell id="kXx_nYdvZnYu2SWyNmIj-6" style="edgeStyle=orthogonalEdgeStyle;rounded=0;orthogonalLoop=1;jettySize=auto;html=1;entryX=1;entryY=0.5;entryDx=0;entryDy=0;" edge="1" parent="1" source="kXx_nYdvZnYu2SWyNmIj-3" target="kXx_nYdvZnYu2SWyNmIj-4">
          <mxGeometry relative="1" as="geometry" />
        </mxCell>
        <mxCell id="kXx_nYdvZnYu2SWyNmIj-3" value="nama_belakang" style="ellipse;whiteSpace=wrap;html=1;" vertex="1" parent="1">
          <mxGeometry x="370" y="110" width="90" height="40" as="geometry" />
        </mxCell>
        <mxCell id="kXx_nYdvZnYu2SWyNmIj-8" style="edgeStyle=orthogonalEdgeStyle;rounded=0;orthogonalLoop=1;jettySize=auto;html=1;entryX=0.5;entryY=0;entryDx=0;entryDy=0;" edge="1" parent="1" source="kXx_nYdvZnYu2SWyNmIj-4" target="kXx_nYdvZnYu2SWyNmIj-1">
          <mxGeometry relative="1" as="geometry" />
        </mxCell>
        <mxCell id="kXx_nYdvZnYu2SWyNmIj-4" value="nama" style="ellipse;whiteSpace=wrap;html=1;" vertex="1" parent="1">
          <mxGeometry x="300" y="200" width="90" height="40" as="geometry" />
        </mxCell>
        <mxCell id="kXx_nYdvZnYu2SWyNmIj-10" style="edgeStyle=orthogonalEdgeStyle;rounded=0;orthogonalLoop=1;jettySize=auto;html=1;entryX=0.75;entryY=0;entryDx=0;entryDy=0;" edge="1" parent="1" source="kXx_nYdvZnYu2SWyNmIj-9" target="kXx_nYdvZnYu2SWyNmIj-1">
          <mxGeometry relative="1" as="geometry" />
        </mxCell>
        <mxCell id="kXx_nYdvZnYu2SWyNmIj-9" value="Jabatan" style="ellipse;whiteSpace=wrap;html=1;" vertex="1" parent="1">
          <mxGeometry x="460" y="150" width="90" height="40" as="geometry" />
        </mxCell>
        <mxCell id="kXx_nYdvZnYu2SWyNmIj-12" style="edgeStyle=orthogonalEdgeStyle;rounded=0;orthogonalLoop=1;jettySize=auto;html=1;entryX=1;entryY=0.5;entryDx=0;entryDy=0;" edge="1" parent="1" source="kXx_nYdvZnYu2SWyNmIj-11" target="kXx_nYdvZnYu2SWyNmIj-1">
          <mxGeometry relative="1" as="geometry">
            <Array as="points">
              <mxPoint x="575" y="300" />
            </Array>
          </mxGeometry>
        </mxCell>
        <mxCell id="kXx_nYdvZnYu2SWyNmIj-11" value="Alamat" style="ellipse;whiteSpace=wrap;html=1;" vertex="1" parent="1">
          <mxGeometry x="530" y="200" width="90" height="40" as="geometry" />
        </mxCell>
        <mxCell id="kXx_nYdvZnYu2SWyNmIj-14" style="edgeStyle=orthogonalEdgeStyle;rounded=0;orthogonalLoop=1;jettySize=auto;html=1;entryX=0;entryY=0.5;entryDx=0;entryDy=0;" edge="1" parent="1" source="kXx_nYdvZnYu2SWyNmIj-13" target="kXx_nYdvZnYu2SWyNmIj-1">
          <mxGeometry relative="1" as="geometry">
            <Array as="points">
              <mxPoint x="255" y="300" />
            </Array>
          </mxGeometry>
        </mxCell>
        <mxCell id="kXx_nYdvZnYu2SWyNmIj-13" value="NIP" style="ellipse;whiteSpace=wrap;html=1;" vertex="1" parent="1">
          <mxGeometry x="210" y="240" width="90" height="40" as="geometry" />
        </mxCell>
      </root>
    </mxGraphModel>
  </diagram>
</mxfile>
